<svg width="100" height="79" viewBox="0 0 100 79" fill="none" xmlns="http://www.w3.org/2000/svg">
<path fill-rule="evenodd" clip-rule="evenodd" d="M85.3579 56.5402C85.3579 60.4807 88.5524 63.6752 92.4929 63.6752C96.4335 63.6752 99.6279 60.4807 99.6279 56.5402V25.9866C99.6279 22.046 96.4335 18.8516 92.4929 18.8516C88.5524 18.8516 85.3579 22.046 85.3579 25.9866V56.5402ZM87.3423 11.6436C88.7819 12.9665 90.5037 13.628 92.5075 13.628C94.5308 13.628 96.2525 12.9665 97.6727 11.6436C99.1124 10.3013 99.8322 8.68651 99.8322 6.79941C99.8322 4.93176 99.1124 3.33648 97.6727 2.01356C96.2525 0.671187 94.5308 0 92.5075 0C90.5037 0 88.7819 0.671187 87.3423 2.01356C85.9026 3.33648 85.1828 4.93176 85.1828 6.79941C85.1828 8.68651 85.9026 10.3013 87.3423 11.6436ZM17.3513 63.4026C12.8315 63.4026 8.88206 60.35 7.74301 55.976L0.223245 27.1001C-0.899521 22.7887 2.35425 18.579 6.80947 18.579C10.0283 18.579 12.807 20.834 13.4696 23.9839L18.3339 47.1071C18.3569 47.2161 18.453 47.2941 18.5644 47.2941C18.6744 47.2941 18.7698 47.2179 18.7941 47.1105L23.6871 25.4226C24.5899 21.4211 28.1445 18.579 32.2466 18.579C36.3244 18.579 39.8648 21.3884 40.7916 25.3595L45.8202 46.9076C45.8451 47.0144 45.9403 47.0899 46.0498 47.0899C46.1618 47.0899 46.2583 47.0112 46.2808 46.9016L50.992 24.0019C51.6416 20.8447 54.4208 18.579 57.6441 18.579C62.0915 18.579 65.3386 22.7827 64.2152 27.0859L56.6683 55.9937C55.529 60.3578 51.5872 63.4026 47.0768 63.4026C42.5909 63.4026 38.664 60.39 37.5021 56.0572L32.5324 37.5243C32.4945 37.383 32.3665 37.2847 32.2201 37.2847C32.0738 37.2847 31.9457 37.383 31.9078 37.5243L26.9413 56.0455C25.7775 60.3852 21.8444 63.4026 17.3513 63.4026ZM94.1597 66.859C97.4031 66.8769 100.018 69.5208 99.9999 72.7642C99.982 76.002 97.3469 78.6144 94.1091 78.6044L15.2564 78.361C12.0092 78.351 9.38711 75.7063 9.40508 72.459C9.42298 69.2261 12.0517 66.6164 15.2847 66.622L55.6865 66.6916C62.2961 66.703 67.6704 61.3675 67.707 54.758L67.8673 25.7996C67.8891 21.8672 71.0946 18.697 75.0271 18.7187C78.9595 18.7405 82.1297 21.946 82.108 25.8785L81.9317 57.7155C81.904 62.7278 85.9447 66.8135 90.9569 66.8413L94.1597 66.859Z" fill="url(#paint0_linear_38_42)"/>
<defs>
<linearGradient id="paint0_linear_38_42" x1="0.147945" y1="-4.45983e-06" x2="118.768" y2="91.1088" gradientUnits="userSpaceOnUse">
<stop stop-color="#6610F2" stop-opacity="0.48"/>
<stop offset="1" stop-color="#E83E8C"/>
</linearGradient>
</defs>
</svg>
